<svg
	width="680" height="1024"
	xmlns="http://www.w3.org/2000/svg"
	viewbox="0 0 680 1024"
>
	<clipPath id="art-mask">
		<ellipse rx="240" ry="240" cx="340" cy="294"/>
	</clipPath>

	<image id="card-art" clip-path="url(#art-mask)" width="1360" height="1076" x="-430" y="-122" href="./test.webp" />

	<image id="card-background" width="634" height="470" x="23" y="463" href="./background.png"/>
	<image id="card-region" width="100" height="100" x="285" y="836" href="./piltoverzaun.png"/>
	<image id="card-frame" width="680" height="1024" x="0" y="0" href="./frameslowcommon.png"/>

	<rect id="mana-cost" width="120" height="120" x="31" y="44" fill="#CFF" opacity="0.75"/>

	<rect id="name" width="550" height="70" fill="#CFF" x="60" y="585" opacity="0.75"/>

	<rect id="keywords" width="550" height="70" fill="#CFF" x="60" y="655" opacity="0.75"/>

	<rect id="effect" width="550" height="145" fill="#CFF" x="60" y="725" opacity="0.75"/>

	<g>
		<path d="
			M 340, 10
			l 35, 60
			h -70
			Z
		" fill="#fff" opacity="0.8" id="arrow-up"/>
		<path d="
			M 340, 575
			l 35, -60
			h -70
			Z
		" fill="#fff" opacity="0.8" id="arrow-down"/>
		<path d="
			M 55, 300
			l 60, -35
			v 70
			Z
		" fill="#fff" opacity="0.8" id="arrow-left"/>
		<path d="
			M 625, 300
			l -60, -35
			v 70
			Z
		" fill="#fff" opacity="0.8" id="arrow-right"/>

		<text font-size="156" x="180" y="345" fill="#fff" stroke="#fff" opacity="0.8">+</text>
		<text font-size="156" x="390" y="345" fill="#fff" stroke="#fff" opacity="0.8">-</text>
	</g>
</svg>